<svg width="141" height="176" xmlns="http://www.w3.org/2000/svg" xmlns:xlink="http://www.w3.org/1999/xlink" overflow="hidden"><defs><clipPath id="clip0"><rect x="1199" y="1763" width="141" height="176"/></clipPath></defs><g clip-path="url(#clip0)" transform="translate(-1199 -1763)"><path d="M1269.47 1763 1257.89 1774.42 1244.84 1788.47 1231.5 1804.31 1219.06 1821.06 1208.71 1837.88 1201.62 1853.89 1199 1868.25 1200.86 1884.44 1206.17 1899.31 1214.5 1912.44 1225.42 1923.39 1238.51 1931.74 1253.33 1937.07 1269.47 1938.94 1285.61 1937.07 1300.43 1931.74 1313.52 1923.39 1324.44 1912.44 1332.76 1899.31 1338.07 1884.44 1339.94 1868.25 1337.31 1853.89 1330.23 1837.86 1319.88 1821.05 1307.44 1804.29 1294.1 1788.46 1281.05 1774.41 1269.47 1763Z" fill="#52C1DD" fill-rule="evenodd"/></g></svg>